<?xml version="1.0" encoding="iso-8859-1"?>
<!-- Generator: Adobe Illustrator 19.0.0, SVG Export Plug-In . SVG Version: 6.00 Build 0)  -->
<svg version="1.1" id="Capa_1" xmlns="http://www.w3.org/2000/svg" xmlns:xlink="http://www.w3.org/1999/xlink" x="0px" y="0px"
	 viewBox="0 0 512 512" style="enable-background:new 0 0 512 512;" xml:space="preserve">
<g>
	<g>
		<path d="M480.78,22.478H31.22C14.005,22.478,0,36.483,0,53.698v305.951c0,17.214,14.005,31.22,31.22,31.22h151.458l57.538,90.012
			c3.447,5.388,9.397,8.642,15.785,8.642c0.013,0,0.031,0,0.044,0c6.4-0.013,12.357-3.303,15.785-8.717l56.919-89.937H480.78
			c17.214,0,31.22-14.005,31.22-31.22V53.698C512,36.483,497.995,22.478,480.78,22.478z M474.537,353.405H318.439
			c-6.419,0-12.394,3.284-15.822,8.716l-46.692,73.766l-47.204-73.84c-3.44-5.388-9.397-8.642-15.785-8.642H37.463V59.941h437.073
			V353.405z"/>
	</g>
</g>
<g>
	<g>
		<path d="M124.878,152.351c-30.982,0-56.195,25.213-56.195,56.195c0,30.982,25.213,56.195,56.195,56.195
			s56.195-25.213,56.195-56.195C181.073,177.564,155.86,152.351,124.878,152.351z M124.878,227.278
			c-10.327,0-18.732-8.404-18.732-18.732c0-10.327,8.404-18.732,18.732-18.732s18.732,8.404,18.732,18.732
			C143.61,218.874,135.205,227.278,124.878,227.278z"/>
	</g>
</g>
<g>
	<g>
		<path d="M256,152.351c-30.982,0-56.195,25.213-56.195,56.195c0,30.982,25.213,56.195,56.195,56.195
			c30.989,0,56.195-25.213,56.195-56.195C312.195,177.564,286.989,152.351,256,152.351z M256,227.278
			c-10.327,0-18.732-8.404-18.732-18.732c0-10.327,8.404-18.732,18.732-18.732c10.327,0,18.732,8.404,18.732,18.732
			C274.732,218.874,266.327,227.278,256,227.278z"/>
	</g>
</g>
<g>
	<g>
		<path d="M387.122,152.351c-30.988,0-56.195,25.213-56.195,56.195c0,30.982,25.207,56.195,56.195,56.195
			s56.195-25.213,56.195-56.195C443.317,177.564,418.11,152.351,387.122,152.351z M387.122,227.278
			c-10.327,0-18.732-8.404-18.732-18.732c0-10.327,8.404-18.732,18.732-18.732s18.732,8.404,18.732,18.732
			C405.854,218.874,397.449,227.278,387.122,227.278z"/>
	</g>
</g>
<g>
</g>
<g>
</g>
<g>
</g>
<g>
</g>
<g>
</g>
<g>
</g>
<g>
</g>
<g>
</g>
<g>
</g>
<g>
</g>
<g>
</g>
<g>
</g>
<g>
</g>
<g>
</g>
<g>
</g>
</svg>
