<?xml version="1.0" encoding="iso-8859-1"?>
<!-- Generator: Adobe Illustrator 19.0.0, SVG Export Plug-In . SVG Version: 6.00 Build 0)  -->
<svg version="1.1" id="Capa_1" xmlns="http://www.w3.org/2000/svg" xmlns:xlink="http://www.w3.org/1999/xlink" x="0px" y="0px"
	 viewBox="0 0 512 512" style="enable-background:new 0 0 512 512;" xml:space="preserve">
<g>
	<g>
		<path d="M256,0C114.84,0,0,114.84,0,256s114.84,256,256,256s256-114.84,256-256S397.16,0,256,0z M256,474.074
			c-120.244,0-218.074-97.83-218.074-218.074S135.756,37.926,256,37.926S474.074,135.756,474.074,256S376.244,474.074,256,474.074z"
			/>
	</g>
</g>
<g>
	<g>
		<path d="M355.24,244.622h-82.805v-90.39c0-10.474-8.489-18.963-18.963-18.963c-10.474,0-18.963,8.489-18.963,18.963v109.353
			c0,10.474,8.489,18.963,18.963,18.963H355.24c10.474,0,18.963-8.489,18.963-18.963S365.713,244.622,355.24,244.622z"/>
	</g>
</g>
<g>
</g>
<g>
</g>
<g>
</g>
<g>
</g>
<g>
</g>
<g>
</g>
<g>
</g>
<g>
</g>
<g>
</g>
<g>
</g>
<g>
</g>
<g>
</g>
<g>
</g>
<g>
</g>
<g>
</g>
</svg>
